<svg width="20" height="20" viewBox="0 0 0.6 0.6" fill="none" xmlns="http://www.w3.org/2000/svg"><path d="M.579.52H.356M.02.52h.223M.3.46V.373" stroke="#ffffff" stroke-width=".043" stroke-linecap="round"/><ellipse cx=".3" cy=".52" stroke="#ffffff" stroke-width=".043" rx=".056" ry=".059"/><path d="M.356.373H.105A.086.086 0 0 1 .021.285C.021.237.06.197.105.197h.39c.046 0 .084.04.084.088a.086.086 0 0 1-.084.088H.467" stroke="#ffffff" stroke-width=".043" stroke-linecap="round"/><path d="M.3.021h.195c.046 0 .084.04.084.088a.086.086 0 0 1-.084.088h-.39A.086.086 0 0 1 .021.11C.021.061.06.021.105.021h.084" stroke="#ffffff" stroke-width=".043" stroke-linecap="round"/><path d="M.328.11h.167" stroke="#ffffff" stroke-width=".043" stroke-linecap="round" fill="#ffffff"/><path d="M.328.285h.167" stroke="#ffffff" stroke-width=".043" stroke-linecap="round"/><ellipse cx=".133" cy=".109" fill="#ffffff" rx=".028" ry=".029"/><ellipse cx=".133" cy=".285" fill="#ffffff" rx=".028" ry=".029"/></svg>