<svg height="800" width="800" xmlns="http://www.w3.org/2000/svg" viewBox="0 0 15.163 15.163"><path d="M11.649 10.797c-.025-.014-.053-.022-.079-.032L7.947 1.183l.017-.02a.307.307 0 0 1 .126-.047.826.826 0 0 1 .804.481c.392 1.185 1.217 1.252 1.217 1.252s-.802-.295-1.012-1.131c-.115-.468-.449-.698-.449-.698a.89.89 0 0 0-.578-.197c-.033 0-.063.01-.096.016a.228.228 0 0 1 .066-.062.635.635 0 0 1 .71.114c.221.261.438.402.63.479.422.655.974.701.974.701s-.479-.18-.802-.646c.251.058.422.009.422.009s-.216.003-.471-.092A1.583 1.583 0 0 1 9.32.915C9.204.437 8.863.202 8.863.202A.915.915 0 0 0 8.271 0c-.254.001-.464.174-.584.344l-.104.144c-.059.076-.417.815-.417.815l-.12.3a.192.192 0 0 0-.022.056c-.576 1.438-2.547 6.371-3.61 9.187-.887.382-2.531 1.252-2.331 2.391.153.871 1.085 1.708 6.832 1.923.118.002.241.003.368.003 2.154 0 5.412-.241 5.777-1.669.283-1.105-1.139-2.021-2.411-2.697zM8.161.348A.308.308 0 0 1 8.289.3a.843.843 0 0 1 .822.492c.059.178.128.328.201.46a1.175 1.175 0 0 1-.379-.334c-.214-.3-.519-.37-.519-.37a.679.679 0 0 0-.432.015l.179-.215zm-.35 13.611c-4.87.079-5.483-1.016-5.611-1.152.054-.119.33-.292.598-.477a2.415 2.415 0 0 0-.076.271c-.102.71 8.629 1.457 9.625 0l-.097-.256c.569.411.638.618.648.618-.247.434-2.031.945-5.087.996z" fill="#030104"/></svg>