<svg version="1" xmlns="http://www.w3.org/2000/svg" width="800" height="800" viewBox="0 0 64 64"><circle fill="#231F20" cx="40" cy="55" r="1"/><circle fill="#231F20" cx="24" cy="55" r="1"/><circle fill="#231F20" cx="32" cy="55" r="1"/><path fill="#231F20" d="M12 60c0 2.211 1.789 4 4 4h32c2.211 0 4-1.789 4-4V38H12v22zm28-8a3 3 0 1 1 0 6 3 3 0 0 1 0-6zm-8 0a3 3 0 1 1 0 6 3 3 0 0 1 0-6zm-8 0a3 3 0 1 1 0 6 3 3 0 0 1 0-6zM12 24h40V14H12v10zm9-6h22a1 1 0 1 1 0 2H21a1 1 0 1 1 0-2zm-9 18h40V26H12v10zm9-6h22a1 1 0 1 1 0 2H21a1 1 0 1 1 0-2zM48 0H16c-2.211 0-4 1.789-4 4v8h40V4c0-2.211-1.789-4-4-4zm-5 8H21a1 1 0 1 1 0-2h22a1 1 0 1 1 0 2z"/></svg>