<svg width="800" height="800" viewBox="0 0 32 32" xmlns="http://www.w3.org/2000/svg"><path d="M4.884 2.334a2.301 2.301 0 0 0-2.293 2.294v20.754a2.3 2.3 0 0 0 2.293 2.292h11.769a27.643 27.643 0 0 1-.088-2.241c0-.401.008-.801.025-1.198l-.002.057c-.008-.077-.014-.176-.02-.25q-.229-1.498-.591-2.972a6.516 6.516 0 0 0-.478-1.36l.017.039a.826.826 0 0 1-.121-.544v.004a3.14 3.14 0 0 1 .049-.501l-.003.019c.088-.523.19-.963.314-1.394l-.022.088.271-.035c-.021-.044-.018-.081-.039-.121l-.051-.476q.224-.751.477-1.492l.25-.024c-.01-.02-.012-.047-.023-.066l-.054-.395c1.006-4.731 3.107-8.864 6.029-12.272l-.031.037c.082-.086.166-.16.247-.242zm23.21-.679c-1.29-1.15-2.849-.687-4.39.68q-.356.319-.684.669a27.054 27.054 0 0 0-5.808 11.747l-.033.18c.261.551.494 1.201.664 1.876l.016.075q.115.436.205.878s-.024-.089-.12-.37l-.062-.182q-.019-.05-.041-.1c-.172-.4-.647-1.243-.857-1.611a41.387 41.387 0 0 0-.47 1.47c.413.863.749 1.867.959 2.917l.014.083s-.031-.124-.184-.552a19.171 19.171 0 0 0-1.015-1.919l.05.089a4.252 4.252 0 0 0-.282 1.861l-.001-.013a6.2 6.2 0 0 1 .519 1.439l.008.043c.357 1.375.606 3.049.606 3.049l.021.28a28.204 28.204 0 0 0 .078 3.537l-.007-.103c.058 1.206.283 2.339.651 3.406l-.026-.086.194-.105a14.476 14.476 0 0 1-.545-3.981c0-.344.012-.684.035-1.022l-.003.046a37.787 37.787 0 0 1 2.158-10.641l-.083.264c1.655-4.9 4.359-9.073 7.861-12.417l.012-.011c-2.491 2.249-5.863 9.535-6.873 12.232-.963 2.42-1.798 5.294-2.365 8.263l-.048.305a6.69 6.69 0 0 1 3.483-3.622l.042-.017s1.321-1.63 2.864-3.956c-1.195.25-2.184.521-3.15.843l.199-.057c-.75.314-.952.421-.952.421a24.902 24.902 0 0 1 4.337-2.092l.178-.058c2.867-4.515 5.991-10.929 2.845-13.736z"/></svg>